<?xml version="1.0" standalone="no"?><!DOCTYPE svg PUBLIC "-//W3C//DTD SVG 1.1//EN" "http://www.w3.org/Graphics/SVG/1.1/DTD/svg11.dtd"><svg t="1575361257290" class="icon" viewBox="0 0 1024 1024" version="1.1" xmlns="http://www.w3.org/2000/svg" p-id="8186" xmlns:xlink="http://www.w3.org/1999/xlink" width="16" height="16"><defs><style type="text/css"></style></defs><path d="M421.376 960S34.304 872.448 207.36 438.784c0 0 39.424 48.128 33.792 71.168 0 0 30.72-109.568 97.28-175.104 57.344-56.32 115.2-214.016 61.44-271.36 0 0 265.216 57.344 294.4 342.528 0 0 33.792-91.136 103.424-99.84 0 0-21.504 50.176 0 124.928 0 0 219.648 385.536-158.72 515.584 0 0 113.152-132.096-126.976-358.912 0 0-56.832 121.344-90.624 164.352 0 1.024-94.72 109.568 0 207.872z" fill="#FF8A01" p-id="8187"></path></svg>