<?xml version="1.0" standalone="no"?><!DOCTYPE svg PUBLIC "-//W3C//DTD SVG 1.1//EN" "http://www.w3.org/Graphics/SVG/1.1/DTD/svg11.dtd"><svg t="1575354993042" class="icon" viewBox="0 0 1024 1024" version="1.1" xmlns="http://www.w3.org/2000/svg" p-id="3475" xmlns:xlink="http://www.w3.org/1999/xlink" width="16" height="16"><defs><style type="text/css"></style></defs><path d="M512 1024C229.2224 1024 0 794.7776 0 512S229.2224 0 512 0s512 229.2224 512 512-229.2224 512-512 512z m214.4256-656.1792h-125.952c18.432-17.8176 36.864-39.3216 55.9104-63.8976v-43.008H460.3904c7.3728-11.0592 15.36-22.7328 22.7328-35.0208l-57.1392-12.288c-50.3808 74.9568-111.2064 133.3248-181.248 175.104l37.4784 44.2368c14.1312-9.8304 28.8768-19.6608 43.6224-30.72v256.8192H382.976v-236.544h286.3104v230.4h57.1392V367.8208z m-193.536 0h-165.888c18.432-17.2032 36.2496-35.6352 53.4528-55.296h164.0448c-17.2032 20.8896-34.4064 39.3216-51.6096 55.296z m30.1056 263.5776l-28.8768 43.008a979.2512 979.2512 0 0 1 216.8832 108.1344l32.5632-49.7664c-66.3552-39.936-140.0832-73.728-220.5696-101.376zM496.0256 448.9216v86.6304c-3.072 50.3808-20.2752 90.9312-51.6096 122.2656-31.9488 29.4912-92.7744 53.4528-181.248 73.1136l31.3344 49.7664c88.4736-20.2752 152.9856-48.5376 192.3072-85.4016 40.5504-39.936 62.0544-93.3888 65.7408-159.744V448.9216H496.0256z" fill="#d81e06" p-id="3476"></path></svg>