<svg t="1574925906998" class="icon" viewBox="0 0 1024 1024" version="1.1" xmlns="http://www.w3.org/2000/svg" p-id="2826" width="200" height="200"><path d="M648.982326 771.523755c0-10.715039-7.714705-19.393699-17.249873-19.393699L390.057205 752.130056c-9.535167 0-17.249873 8.67866-17.249873 19.393699l0 77.641311L200.20423 849.165066l0 58.284451L821.585429 907.449517l0-58.284451L648.982326 849.165066 648.982326 771.523755 648.982326 771.523755 648.982326 771.523755 648.982326 771.523755zM899.085524 64.141856 122.705158 64.141856c-32.142048 0-58.213843 26.034956-58.213843 58.21282l0 543.491225c0 32.108279 26.034956 58.214866 58.213843 58.214866l776.381389 0c32.142048 0 58.248635-26.071795 58.248635-58.214866L957.335183 122.355699C957.334159 90.213651 931.300226 64.141856 899.085524 64.141856L899.085524 64.141856 899.085524 64.141856 899.085524 64.141856zM899.085524 646.382617c0 10.714016-8.67866 19.392676-19.392676 19.392676L142.132626 665.775292c-10.749832 0-19.392676-8.67866-19.392676-19.392676L122.73995 141.748375c0-10.714016 8.642844-19.392676 19.392676-19.392676l737.560222 0c10.714016 0 19.392676 8.642844 19.392676 19.392676L899.085524 646.382617 899.085524 646.382617 899.085524 646.382617 899.085524 646.382617zM700.266339 609.239672l104.999402 0L805.265742 303.531038 700.266339 303.531038 700.266339 609.239672 700.266339 609.239672 700.266339 609.239672 700.266339 609.239672zM532.269138 609.239672 637.267517 609.239672 637.267517 209.461569 532.269138 209.461569 532.269138 609.239672 532.269138 609.239672 532.269138 609.239672 532.269138 609.239672zM217.203392 609.239672 322.201771 609.239672 322.201771 491.670999 217.203392 491.670999 217.203392 609.239672 217.203392 609.239672 217.203392 609.239672 217.203392 609.239672zM364.272959 609.239672l104.997356 0L469.270315 397.564691 364.272959 397.564691 364.272959 609.239672 364.272959 609.239672 364.272959 609.239672 364.272959 609.239672z" p-id="2827"></path></svg>