<?xml version="1.0" standalone="no"?><!DOCTYPE svg PUBLIC "-//W3C//DTD SVG 1.1//EN" "http://www.w3.org/Graphics/SVG/1.1/DTD/svg11.dtd"><svg t="1575088819577" class="icon" viewBox="0 0 1024 1024" version="1.1" xmlns="http://www.w3.org/2000/svg" p-id="22112" xmlns:xlink="http://www.w3.org/1999/xlink" width="48" height="48"><defs><style type="text/css"></style></defs><path d="M512 918.588235c224.557176 0 406.588235-182.031059 406.588235-406.588235S736.557176 105.411765 512 105.411765 105.411765 287.442824 105.411765 512 287.442824 918.588235 512 918.588235z m0 45.176471C262.505412 963.764706 60.235294 761.494588 60.235294 512 60.235294 262.505412 262.505412 60.235294 512 60.235294c249.494588 0 451.764706 202.270118 451.764706 451.764706 0 249.494588-202.270118 451.764706-451.764706 451.764706zM286.117647 391.529412a30.117647 30.117647 0 0 1 30.117647 30.117647v301.17647h-60.235294V421.647059a30.117647 30.117647 0 0 1 30.117647-30.117647z m150.588235 60.235294a30.117647 30.117647 0 0 1 30.117647 30.117647v240.941176h-60.235294v-240.941176a30.117647 30.117647 0 0 1 30.117647-30.117647z m150.588236-180.705882a30.117647 30.117647 0 0 1 30.117647 30.117647v421.647058h-60.235294V301.176471a30.117647 30.117647 0 0 1 30.117647-30.117647z m150.588235 90.352941a30.117647 30.117647 0 0 1 30.117647 30.117647v331.294117h-60.235294V391.529412a30.117647 30.117647 0 0 1 30.117647-30.117647z" p-id="22113" fill="#34BFA3"></path></svg>