<?xml version="1.0" standalone="no"?><!DOCTYPE svg PUBLIC "-//W3C//DTD SVG 1.1//EN" "http://www.w3.org/Graphics/SVG/1.1/DTD/svg11.dtd"><svg t="1575088789697" class="icon" viewBox="0 0 1024 1024" version="1.1" xmlns="http://www.w3.org/2000/svg" p-id="21619" width="48" height="48" xmlns:xlink="http://www.w3.org/1999/xlink"><defs><style type="text/css"></style></defs><path d="M997.376 790.016l-390.144-674.816c-19.968-34.304-55.296-54.272-94.72-54.272-39.424 0-74.752 20.48-94.208 54.272l-390.144 674.816c-19.968 34.304-19.968 74.752 0 109.056 19.968 34.304 55.296 54.784 94.72 54.784h779.776c39.424 0 74.752-20.48 94.72-54.784 19.968-34.304 19.968-75.264 0-109.056z m-63.488 72.192c-6.656 11.264-17.92 17.92-30.72 17.92H122.88c-12.8 0-24.576-6.656-30.72-17.92-6.656-11.264-6.656-24.576 0-35.328l390.144-674.816c6.656-11.264 17.92-17.92 30.72-17.92s24.576 6.656 30.72 17.92l390.144 674.816c6.144 10.752 6.144 24.064 0 35.328z" p-id="21620" fill="#ffffff"></path><path d="M514.56 630.272c22.528 0 40.96-18.432 40.96-40.96v-279.552c0-22.528-18.432-40.96-40.96-40.96s-40.96 18.432-40.96 40.96v279.552c0 22.528 18.432 40.96 40.96 40.96zM514.56 693.248c-32.768 0-59.392 26.624-59.392 59.392 0 32.768 26.624 59.392 59.392 59.392 32.768 0 59.392-26.624 59.392-59.392 0-32.768-26.624-59.392-59.392-59.392z" p-id="21621" fill="#ffffff"></path></svg>